<?xml version="1.0" encoding="UTF-8"?>
<svg width="310px" height="306px" viewBox="0 0 310 306" version="1.1" xmlns="http://www.w3.org/2000/svg" xmlns:xlink="http://www.w3.org/1999/xlink">
    <!-- Generator: Sketch 63.1 (92452) - https://sketch.com -->
    <title>Group 39</title>
    <desc>Created with Sketch.</desc>
    <defs>
        <polygon id="path-1" points="0.241280444 0.227152795 16.2053581 0.227152795 16.2053581 51.5433965 0.241280444 51.5433965"></polygon>
        <polygon id="path-3" points="0.238821464 0.227579698 16.0498676 0.227579698 16.0498676 51.5433965 0.238821464 51.5433965"></polygon>
        <polygon id="path-5" points="0.269660088 0.416229952 16.798614 0.416229952 16.798614 50.7252683 0.269660088 50.7252683"></polygon>
        <polygon id="path-7" points="0 0.654583856 146.270747 0.654583856 146.270747 244.154086 0 244.154086"></polygon>
    </defs>
    <g id="Кейс" stroke="none" stroke-width="1" fill="none" fill-rule="evenodd">
        <g id="Vlady-XL" transform="translate(-967.000000, -1647.000000)">
            <g id="Group-5" transform="translate(-246.000000, 1546.000000)">
                <g id="Group-39" transform="translate(1213.000000, 100.000000)">
                    <path d="M16.8979399,306.212193 L14.6695088,306.212193 L14.3109107,306.212193 C11.7224585,306.212193 11.2927099,303.121419 11.2201365,302.690248 L4.03252115,255.903155 L7.98563844,255.903155 C8.34423655,255.903155 9.20800264,256.190603 9.49545033,257.842715 L14.3109107,289.39508 L19.4138188,255.903155 L24.5878772,255.903155 L16.8979399,306.212193 Z" id="Fill-1" fill="#FEFEFE"></path>
                    <path d="M51.9020962,301.109285 C51.3272008,302.4028 50.4634348,304.414934 50.2485605,304.846105 C49.8899624,305.493574 49.0987697,306.212193 47.445234,306.212193 L35.0849832,306.212193 L35.0849832,255.901732 L38.6780793,255.901732 C39.5389994,255.974305 40.2576186,256.620351 40.2576186,257.482694 L40.2576186,301.109285 L51.9020962,301.109285 Z" id="Fill-3" fill="#FEFEFE"></path>
                    <path d="M74.3978665,306.212193 L68.7214861,306.212193 L64.1920504,271.570477 L59.6640378,306.212193 L53.9862343,306.212193 L61.6050212,255.903155 L64.4069247,255.903155 C66.5642054,255.903155 66.9242265,257.26782 67.1391008,258.632485 L74.3978665,306.212193 Z" id="Fill-5" fill="#FEFEFE"></path>
                    <path d="M93.5918305,263.664385 C93.5918305,261.795975 92.2983159,261.077356 90.8596544,261.077356 L87.4814325,261.077356 L87.4814325,301.109427 L90.8596544,301.109427 C92.2983159,301.109427 93.5918305,300.390808 93.5918305,298.449825 L93.5918305,263.664385 Z M92.2983159,255.901874 C95.8188386,255.901874 98.6221651,258.705201 98.6947386,262.227146 L98.6947386,299.888486 C98.6221651,303.409009 95.8188386,306.212336 92.2983159,306.212336 L82.307374,306.212336 L82.307374,255.901874 L92.2983159,255.901874 Z" id="Fill-7" fill="#FEFEFE"></path>
                    <path d="M119.036359,285.297812 L119.036359,306.211766 L115.370689,306.211766 C114.579497,306.211766 113.932028,305.565721 113.860877,304.703377 L113.860877,285.297812 L107.680752,255.902728 L111.488722,255.902728 C111.633869,255.902728 112.925961,255.973878 113.142258,257.627414 L116.44933,276.672958 L119.754978,257.627414 C119.969852,255.973878 121.263367,255.902728 121.407091,255.902728 L125.216484,255.902728 L119.036359,285.297812 Z" id="Fill-9" fill="#FEFEFE"></path>
                    <path d="M173.23021,263.664385 C173.23021,261.795975 171.936695,261.077356 170.498034,261.077356 L167.119812,261.077356 L167.119812,301.109427 L170.498034,301.109427 C171.936695,301.109427 173.23021,300.390808 173.23021,298.449825 L173.23021,263.664385 Z M171.936695,255.901874 C175.457218,255.901874 178.260545,258.705201 178.333118,262.227146 L178.333118,299.888486 C178.260545,303.409009 175.457218,306.212336 171.936695,306.212336 L161.945754,306.212336 L161.945754,255.901874 L171.936695,255.901874 Z" id="Fill-11" fill="#FEFEFE"></path>
                    <path d="M208.0175,301.109285 C207.442604,302.4028 206.580261,304.414934 206.363964,304.846105 C206.005366,305.493574 205.214173,306.212193 203.560638,306.212193 L192.061307,306.212193 L192.061307,257.33897 C192.13388,256.549201 192.781349,255.901732 193.642269,255.901732 L207.084006,255.901732 L205.357897,259.638552 C205.071872,260.286021 204.28068,261.077213 202.627144,261.077213 L198.45773,261.077213 C197.73911,261.077213 197.236788,261.579535 197.236788,262.299578 L197.236788,277.248281 L204.999299,277.248281 C204.424404,278.541795 203.560638,280.62508 203.345763,281.057674 C202.987165,281.70372 202.267123,282.422339 200.61501,282.422339 L198.45773,282.422339 C197.811684,282.422339 197.236788,282.997235 197.236788,283.644703 L197.236788,301.109285 L208.0175,301.109285 Z" id="Fill-13" fill="#FEFEFE"></path>
                    <g id="Group-17" transform="translate(217.405188, 255.171830)">
                        <mask id="mask-2" fill="white">
                            <use xlink:href="#path-1"></use>
                        </mask>
                        <g id="Clip-16"></g>
                        <path d="M10.9540746,13.3800193 L10.9540746,7.55849198 C10.9540746,5.97752967 9.73313339,4.75516547 8.2233215,4.75516547 C6.71493261,4.75516547 5.4911454,5.97752967 5.4911454,7.55849198 L5.4911454,12.3739523 C5.4911454,15.3210027 7.72099954,19.1303961 7.72099954,19.1303961 L13.8997019,30.7734507 C16.4170038,35.3726138 16.2007065,38.7508357 16.2007065,38.7508357 L16.2007065,45.1472584 C16.2007065,48.6692041 13.3262296,51.5436811 9.73313339,51.5436811 L6.49721233,51.5436811 C3.04784001,51.3999572 0.317086925,48.5966307 0.245936506,45.1472584 L0.245936506,39.9717769 C0.245936506,38.3196642 1.03570616,37.5284715 1.68175196,37.1698734 C2.11434651,37.0261496 4.19763078,36.0912331 5.4911454,35.5163377 L5.4911454,44.2849153 C5.4911454,45.7933042 6.71493261,47.0156684 8.2233215,47.0156684 C9.73313339,47.0156684 10.9540746,45.7933042 10.9540746,44.2123419 L10.9540746,38.461965 C10.9540746,35.5163377 8.72706646,31.6357938 8.72706646,31.6357938 L2.54551805,20.0638896 C0.0296392317,15.4633035 0.245936506,12.0865047 0.245936506,12.0865047 L0.245936506,6.91102317 C0.245936506,3.38907742 3.12041344,0.227152795 6.71493261,0.227152795 L9.94800766,0.227152795 C13.39738,0.299726223 16.2007065,3.46165085 16.2007065,6.91102317 L16.2007065,8.8520066 C16.2007065,10.5041193 15.4095138,11.295312 14.763468,11.6553331 C14.3322965,11.8702074 12.3201626,12.8051239 10.9540746,13.3800193" id="Fill-15" fill="#FEFEFE" mask="url(#mask-2)"></path>
                    </g>
                    <path d="M250.282414,255.902443 C251.792226,255.902443 252.367121,257.052234 252.367121,257.914577 L252.367121,306.211482 L248.701452,306.211482 C247.479088,306.211482 247.264213,305.494286 247.19164,305.134264 L247.19164,255.902443 L250.282414,255.902443 Z" id="Fill-18" fill="#FEFEFE"></path>
                    <g id="Group-22" transform="translate(265.787473, 255.171830)">
                        <mask id="mask-4" fill="white">
                            <use xlink:href="#path-3"></use>
                        </mask>
                        <g id="Clip-21"></g>
                        <path d="M16.0498676,14.4576635 C16.0498676,16.1823497 15.3312484,16.9009689 14.6112061,17.26099 C14.252608,17.4772873 12.2404742,18.4107808 10.8743861,18.9856762 L10.8743861,7.48634546 C10.8743861,5.97795657 9.65344492,4.75559237 8.14363303,4.75559237 C6.63524414,4.75559237 5.41145693,5.97795657 5.41145693,7.48634546 L5.41145693,44.2839192 C5.41145693,45.7937311 6.63524414,47.0160953 8.14363303,47.0160953 C9.65344492,47.0160953 10.8743861,45.7937311 10.8743861,44.2839192 L10.8743861,29.2626427 L10.6595118,29.2626427 C9.50829807,29.2626427 8.78967883,27.61053 8.78967883,27.61053 L7.06641568,24.0174338 L13.5339888,24.0174338 C15.1149511,24.0174338 16.0498676,24.8797769 16.0498676,26.8207603 L16.0498676,45.1462623 C16.0498676,48.5970576 13.2465411,51.3989611 9.79574576,51.544108 L6.63524414,51.544108 C3.11187539,51.544108 0.238821464,48.669631 0.238821464,45.1462623 L0.238821464,6.62400238 C0.238821464,3.10205663 3.11187539,0.227579698 6.63524414,0.227579698 L9.79574576,0.227579698 C13.2465411,0.371303544 16.0498676,3.17463006 16.0498676,6.62400238 L16.0498676,14.4576635 Z" id="Fill-20" fill="#FEFEFE" mask="url(#mask-4)"></path>
                    </g>
                    <g id="Group-25" transform="translate(293.139727, 255.486925)">
                        <mask id="mask-6" fill="white">
                            <use xlink:href="#path-5"></use>
                        </mask>
                        <g id="Clip-24"></g>
                        <path d="M16.7993255,50.7252683 L14.4285935,50.7252683 C11.625267,50.7252683 11.1940954,48.4968372 10.9777982,47.4907702 L5.44514157,22.6236988 L5.44514157,50.7252683 L0.269660088,50.7252683 L0.269660088,0.416229952 L2.64181506,0.416229952 C5.51486899,0.416229952 6.01861395,1.78089499 6.30606165,3.21813346 L11.625267,29.3801426 L11.625267,0.416229952 L16.7993255,0.416229952 L16.7993255,50.7252683 Z" id="Fill-23" fill="#FEFEFE" mask="url(#mask-6)"></path>
                    </g>
                    <polygon id="Fill-26" fill="#E5E5E4" points="57.6038062 12.2532406 192.365546 61.3014935 150.78951 61.4509094 54.4959559 33.04197"></polygon>
                    <polygon id="Fill-28" fill="#FEFEFE" points="192.365688 61.3019204 192.062588 50.4842107 57.3022707 1.43453475 57.6651379 14.4607535"></polygon>
                    <g id="Group-32" transform="translate(0.000000, 0.768425)">
                        <mask id="mask-8" fill="white">
                            <use xlink:href="#path-7"></use>
                        </mask>
                        <g id="Clip-31"></g>
                        <polygon id="Fill-30" fill="#FEFEFE" mask="url(#mask-8)" points="-0.000284601676 1.3917022 56.4333818 0.654583856 146.270747 152.638994 144.699746 244.154086"></polygon>
                    </g>
                    <polygon id="Fill-33" fill="#E5E5E4" points="143.013481 147.905926 144.699746 244.922368 254.877593 48.1957286 198.303049 48.935693"></polygon>
                    <polygon id="Fill-35" fill="#D3D3D3" points="144.699177 244.922795 144.441612 225.194207 213.71366 121.694538"></polygon>
                    <polygon id="Fill-37" fill="#C1C1C2" points="144.80206 244.920661 144.543073 225.193496 72.5914997 123.538046"></polygon>
                </g>
            </g>
        </g>
    </g>
</svg>