<svg xmlns="http://www.w3.org/2000/svg" viewBox="0 0 764.48 722.5"><defs><style>.cls-1{fill:#BA2A5D;}</style></defs><title>Ресурс 2</title><g id="Слой_2" data-name="Слой 2"><g id="Слой_1-2" data-name="Слой 1"><path class="cls-1" d="M763.39,398.89a9.78,9.78,0,0,1,1.09,5.43V668.2a54.46,54.46,0,0,1-54.3,54.3c-29.32,0-53.21-23.89-53.21-54.3V394.55c0-60.81-50-109.68-110.76-109.68S435.45,333.74,435.45,394.55V668.2c0,30.41-23.89,54.3-53.21,54.3a54.46,54.46,0,0,1-54.3-54.3V394.55A109.37,109.37,0,0,0,218.27,284.87c-60.81,0-110.77,48.87-110.77,109.68V668.2c0,30.41-23.89,54.3-53.2,54.3A53.77,53.77,0,0,1,0,668.2V394.55C0,275.1,97.73,177.37,218.27,177.37c65.15,0,123.79,28.23,164,74.93,40.18-46.7,98.82-74.93,164-74.93,120.54,0,218.27,97.73,218.27,217.18C764.48,396.72,764.48,397.81,763.39,398.89Z"/><path class="cls-1" d="M383.69,107.51c14.11,0,28.23-5.43,38-15.21s15.2-23.89,15.2-38-5.43-28.24-15.2-38S397.8,0,383.69,0s-28.24,6.51-38,16.29-16.29,23.89-16.29,38,6.52,28.23,16.29,38S369.57,107.51,383.69,107.51Z"/></g></g></svg>